<?xml version="1.0" encoding="UTF-8"?>
<!DOCTYPE svg PUBLIC "-//W3C//DTD SVG 1.1//EN" "http://www.w3.org/Graphics/SVG/1.1/DTD/svg11.dtd">
<!-- Creator: CorelDRAW 2020 (64-Bit) -->
<svg xmlns="http://www.w3.org/2000/svg" xml:space="preserve" width="70px" height="70px" version="1.1" style="shape-rendering:geometricPrecision; text-rendering:geometricPrecision; image-rendering:optimizeQuality; fill-rule:evenodd; clip-rule:evenodd"
viewBox="0 0 70 70"
 xmlns:xlink="http://www.w3.org/1999/xlink"
 xmlns:xodm="http://www.corel.com/coreldraw/odm/2003">
 <defs>
  <style type="text/css">
   <![CDATA[
    .str0 {stroke:#FEFEFE;stroke-width:0.5;stroke-miterlimit:22.9256}
    .fil0 {fill:none}
    .fil1 {fill:#FEFEFE}
    .fil2 {fill:#FEFEFE}
   ]]>
  </style>
 </defs>
 <g id="Layer_x0020_1">
  <metadata id="CorelCorpID_0Corel-Layer"/>
  <rect class="fil0" width="70" height="70"/>
  <path class="fil1 str0" d="M53 42.5c6.351,0 11.5,5.149 11.5,11.5 0,6.351 -5.149,11.5 -11.5,11.5 -6.351,0 -11.5,-5.149 -11.5,-11.5 0,-6.351 5.149,-11.5 11.5,-11.5zm-7.08 19.5l5.178 -7.821 -4.696 -7.179 3.537 0 2.953 4.466 2.954 -4.466 3.544 0 -4.706 7.183 5.167 7.817 -3.638 0 -3.324 -5.08 -3.327 5.08 -3.642 0z"/>
  <path class="fil2" d="M62.905 54.471c-0.034,0.099 0.025,1.117 0.008,1.319l-0.747 2.44c-0.445,1.372 -2.234,3.196 -3.291,4.019 -0.652,0.507 -1.426,1.05 -2.236,1.326 -0.98,0.333 -3.722,1.037 -4.713,0.752l-3.523 -0.977c-0.052,-0.025 -0.196,-0.103 -0.247,-0.129l-1.87 -1.128c-0.932,-0.555 -1.826,-1.535 -2.312,-2.561l-0.119 -0.257c-0.631,-1.241 -0.869,-0.997 -1.194,-2.742l-0.137 -0.613c-0.014,-0.045 -0.039,-0.089 -0.054,-0.134 -0.379,-1.127 -0.406,-3 -0.007,-4.138l0.611 -1.826c0.015,-0.047 0.027,-0.098 0.043,-0.144l1.174 -2.013c0.022,-0.034 0.049,-0.082 0.072,-0.115 0.799,-1.142 2.511,-2.575 3.784,-3.151 0.34,-0.154 0.009,-0.022 0.406,-0.157l2.219 -0.593c0.045,-0.014 0.089,-0.039 0.133,-0.054 0.044,-0.015 0.088,-0.041 0.133,-0.055 1.713,-0.55 4.252,-0.03 5.746,0.745l1.255 0.619c0.295,0.161 0.209,0.115 0.454,0.296l1.132 0.743c0.472,0.368 -0.013,-0.029 0.381,0.368 0.109,0.108 0.239,0.243 0.279,0.283l0.616 0.696c0.172,0.272 0.091,0.211 0.266,0.484 0.1,0.158 0.099,0.136 0.239,0.323l1.513 4.487c0.193,1.4 0.167,-0.204 0.338,1.001 0.178,1.257 -0.159,0.328 -0.352,0.886zm-22.868 2.811l-32.614 0c-0.035,-1.561 -0.234,0.085 -0.384,-1.494 -0.095,-0.996 0.093,-1.87 0.461,-2.739 0.318,-0.751 1.008,-1.413 1.514,-2.048l0.347 -0.59c0.582,-0.996 2.798,-3.006 3.771,-3.915l1.131 -0.742c0.913,-0.711 0.854,-0.881 1.527,-1.285 0.036,-0.021 0.085,-0.047 0.119,-0.068 0.034,-0.022 0.08,-0.052 0.113,-0.075l2.396 -1.541c0.091,-0.044 0.244,-0.12 0.376,-0.186l1 -0.5c0.038,-0.019 0.086,-0.043 0.125,-0.062l2.229 -0.957c0.045,-0.015 0.096,-0.032 0.139,-0.048 0.867,-0.329 1.662,-0.792 2.589,-0.973 0.467,-0.09 0.338,-0.022 0.78,-0.157l1.904 -0.533c0.321,-0.082 0.17,-0.042 0.488,-0.075l2.419 -0.392c1.644,0.005 6.336,-0.237 7.659,0.048l2.798 0.576c0.267,0.084 0.088,0.042 0.448,0.114 0.446,0.089 0.342,0.019 0.784,0.153l2.243 0.757c0.045,0.015 0.093,0.035 0.137,0.05l1.739 0.698c0.405,0.191 -0.129,0.217 0.885,0.239l0 0.75 -2.5 1.436c-0.598,0.35 -1.349,0.812 -1.934,1.814 -0.044,0.074 -0.085,0.174 -0.128,0.247l-1.816 2.871c-0.696,1.38 -0.552,2.277 -0.933,3.378 -0.049,0.142 -0.033,-0.129 -0.149,0.413 -0.049,0.227 -0.048,0.466 -0.051,0.699 -0.007,0.481 -0.007,1.045 0,1.527 0.003,0.233 0.002,0.472 0.051,0.699 0.173,0.804 0.337,0.91 0.337,1.911zm-32.614 2.624l33.739 0 1.119 1.693c0.278,0.321 0.84,0.678 1.007,1.055 0.169,0.379 0.112,0.114 0.124,0.626 0.568,0.013 0.812,0.205 1.224,0.65l3.023 1.851c0.087,0.045 0.217,0.12 0.369,0.193l1.371 0.504c0.654,0.228 1.87,0.078 2.611,0.228l1.026 0.041c1.049,-0.256 1.961,0.001 3.026,-0.375 0.188,-0.066 0.24,-0.073 0.428,-0.135l1.129 -0.37c0.047,-0.015 0.098,-0.028 0.144,-0.044l3.458 -2.165c0.068,-0.069 0.162,-0.163 0.28,-0.283 1.081,-1.093 2.031,-2.08 2.72,-3.465l0.696 -1.74c0.272,-0.806 0.488,-0.993 0.604,-1.833 0.174,-1.254 0.12,-4.622 -0.222,-5.572l-0.762 -2.237c-0.024,-0.053 -0.101,-0.197 -0.127,-0.248l-0.189 -0.374c-0.759,-1.525 -1.902,-2.633 -3.095,-3.84l-2.469 -1.654c-0.039,-0.019 -0.087,-0.043 -0.125,-0.063 -1.275,-0.638 -2.262,-1.031 -3.506,-1.18 -1.136,-0.135 -0.496,0.23 -0.743,-0.382l-3.749 0c-0.129,-0.358 -0.02,-0.158 -0.196,-0.365l-3.429 -1.633c-0.037,-0.019 -0.086,-0.044 -0.124,-0.063l-2.72 -1.029c-0.045,-0.015 -0.092,-0.036 -0.136,-0.051l-3.138 -0.798c-0.245,-0.082 0.299,-0.058 -0.579,-0.172l-4.486 -0.387c-1.564,0 -3.129,0.008 -4.693,-0.007 -1.099,-0.011 -1.248,0.261 -2.067,0.369l-1.544 0.143c-0.979,0.318 -1.546,0.268 -3.267,0.857l-0.711 0.226c-0.046,0.015 -0.094,0.033 -0.139,0.049l-1.4 0.474c-0.045,0.016 -0.093,0.034 -0.139,0.049l-1.474 0.587c-0.548,0.281 0.303,-0.153 -0.249,0.127l-1.624 0.812c-0.145,0.073 -0.269,0.135 -0.375,0.188l-7.813 5.495c-0.68,0.697 -1.575,1.402 -2.059,2.252l-1.63 2.119c-0.247,0.389 -1.13,1.283 -1.567,2.369l-0.228 1.084c-0.393,1.702 -0.619,2.474 0.126,4.288 0.017,0.042 0.036,0.093 0.055,0.132l0.984 1.078c0.786,0.785 1.209,0.179 1.511,0.926z"/>
  <path class="fil2" d="M46.411 20.731c-0.015,0.041 0.008,0.619 -0.009,0.741l-0.504 1.558c-0.042,0.123 -0.058,0.153 -0.1,0.275l-1.195 2.366c-0.022,0.036 -0.045,0.087 -0.066,0.123l-1.12 1.503c-0.276,0.491 0.129,0.043 -0.289,0.461l-2.965 2.096c-0.162,0.079 -0.256,0.127 -0.375,0.187l-3.114 1.198c-0.608,0.213 -1.22,0.184 -1.883,0.178 -1.186,-0.01 -2.439,0.103 -3.513,-0.24 -0.046,-0.014 -0.092,-0.034 -0.14,-0.047 -1.296,-0.362 -2.55,-0.586 -3.716,-1.345l-1.821 -1.366c-0.649,-0.666 -1.517,-1.323 -1.995,-2.128l-2.082 -4.478c-0.382,-1.061 -0.433,-4.484 -0.153,-5.503l0.106 -0.269c0.015,-0.044 0.04,-0.088 0.054,-0.133l2.385 -5.113c0.021,-0.036 0.043,-0.087 0.065,-0.123l1.336 -1.475c0.567,-0.575 0.43,-0.329 1.202,-0.86l0.644 -0.48c0.048,-0.029 0.195,-0.103 0.246,-0.129l4.104 -1.519c1.193,-0.334 1.877,-0.319 3.29,-0.3 0.233,0.004 0.472,0.003 0.698,0.051l0.283 0.093c0.044,0.015 0.087,0.042 0.13,0.057l0.269 0.106c0.629,0.167 1.15,0.034 1.743,0.32l3.36 1.7c0.793,0.471 2.517,2.19 3.048,2.95 0.023,0.033 0.05,0.081 0.072,0.115l1.986 4.576c0.18,1.338 0.422,1.99 0.409,3.557 -0.013,1.667 -0.204,0.756 -0.39,1.297zm-14.246 -17.245l-0.27 0.106c-0.268,0.056 -0.182,0.044 -0.487,0.075l-6.749 2.81c-1.026,1.019 -2.21,1.98 -3.084,3.102l-0.417 0.707c-0.022,0.034 -0.052,0.08 -0.075,0.113l-0.409 0.528c-0.022,0.034 -0.051,0.081 -0.071,0.116l-1.379 3.495c-0.015,0.046 -0.036,0.092 -0.05,0.138l-0.22 1.092c-0.013,0.048 -0.032,0.094 -0.047,0.14l-0.11 0.266c-0.014,0.045 -0.037,0.089 -0.05,0.136 -0.289,1.051 -0.296,4.15 0.05,5.23l3.685 7.375c0.021,0.036 0.044,0.086 0.066,0.121 0.022,0.034 0.049,0.082 0.072,0.115l0.937 0.937c0.033,0.023 0.081,0.051 0.116,0.072 0.035,0.022 0.085,0.046 0.121,0.067l1.157 0.905c0.271,0.217 0.062,0.053 0.342,0.22l0.787 0.524c0.032,0.024 0.074,0.059 0.106,0.082 0.033,0.023 0.077,0.055 0.111,0.077l1.499 0.75c0.044,0.016 0.094,0.033 0.139,0.048 0.207,0.072 0.239,0.064 0.437,0.126l2.906 0.843c1.27,0.405 3.712,0.494 4.881,0.108 0.044,-0.015 0.087,-0.042 0.13,-0.057l1.293 -0.207c0.875,-0.119 0.786,-0.186 1.576,-0.486l1.379 -0.683c0.038,-0.019 0.087,-0.043 0.125,-0.062l5.194 -3.991c0.146,-0.148 0.292,-0.304 0.424,-0.513l1.821 -3.24c0.017,-0.042 0.038,-0.091 0.054,-0.134 0.016,-0.044 0.033,-0.094 0.049,-0.139l0.6 -1.836c0.216,-0.602 0.133,-1.572 0.361,-2.262 0.144,-0.437 0.346,-1.812 0.236,-2.559l-0.236 -0.702c-0.014,-0.045 -0.038,-0.089 -0.051,-0.136 -0.169,-0.614 0.005,-1.095 -0.155,-1.719l-0.342 -0.971c-0.015,-0.046 -0.03,-0.096 -0.046,-0.142l-1.995 -4.002c-0.023,-0.032 -0.058,-0.075 -0.081,-0.107 -0.027,-0.037 -0.142,-0.168 -0.169,-0.205 -0.023,-0.032 -0.058,-0.075 -0.08,-0.108 -0.023,-0.033 -0.053,-0.079 -0.075,-0.113 -0.022,-0.034 -0.048,-0.083 -0.069,-0.118l-1.286 -1.526c-0.223,-0.224 -0.286,-0.289 -0.464,-0.472 -0.178,-0.183 -0.354,-0.386 -0.58,-0.545l-2.255 -1.495c-0.032,-0.023 -0.077,-0.055 -0.11,-0.076l-2.632 -1.118c-0.196,-0.067 -0.468,-0.146 -0.707,-0.229 -1.165,-0.408 -4.983,-1.054 -5.903,-0.471z"/>
 </g>
</svg>
